P2
2 2
255
-10 10
10 255
