P2
2 2
255
246 10
10 255
